<svg width="30" height="22" viewBox="0 0 30 22" fill="none" xmlns="http://www.w3.org/2000/svg">
<path d="M1.23453 7.36974C1.01312 7.20461 0.68384 7.35908 0.68384 7.6201V18.5134C0.68384 19.925 1.90445 21.0703 3.40892 21.0703H27.0263C28.5307 21.0703 29.7513 19.925 29.7513 18.5134V7.62543C29.7513 7.35909 29.4277 7.20993 29.2006 7.37506C27.9289 8.30193 26.2428 9.47915 20.452 13.4263C19.2541 14.2466 17.233 15.9725 15.2176 15.9619C13.1908 15.9778 11.13 14.2147 9.97749 13.4263C4.1867 9.47915 2.50624 8.2966 1.23453 7.36974ZM15.2176 14.252C13.9005 14.2733 12.0043 12.6965 11.0505 12.0467C3.51679 6.91696 2.94338 6.46951 1.20615 5.19108C0.876867 4.95137 0.68384 4.5785 0.68384 4.18431V3.17222C0.68384 1.76062 1.90445 0.615356 3.40892 0.615356H27.0263C28.5307 0.615356 29.7513 1.76062 29.7513 3.17222V4.18431C29.7513 4.5785 29.5583 4.94604 29.229 5.19108C27.4918 6.46418 26.9184 6.91696 19.3847 12.0467C18.4309 12.6965 16.5347 14.2733 15.2176 14.252Z" fill="#145CE6"/>
</svg>
