<svg width="24" height="24" viewBox="0 0 24 24" fill="none" xmlns="http://www.w3.org/2000/svg">
<path d="M21.8444 0.931274H1.38363C1.04695 0.93141 0.724098 1.06522 0.486027 1.30329C0.247957 1.54136 0.11415 1.86421 0.114014 2.20089V22.6617C0.11415 22.9983 0.247957 23.3212 0.486027 23.5593C0.724098 23.7973 1.04695 23.9311 1.38363 23.9313H11.614V14.8956H8.86479V11.6098H11.614V8.99154C11.614 6.02105 13.6743 4.40386 16.328 4.40386C17.5976 4.40386 18.9632 4.49935 19.2805 4.54145V7.64389H17.1664C15.7227 7.64389 15.4475 8.3267 15.4475 9.33295V11.6098H18.8873L18.438 14.8956H15.4475V23.9313H21.8444C22.1811 23.9311 22.5039 23.7973 22.742 23.5593C22.9801 23.3212 23.1139 22.9983 23.114 22.6617V2.20089C23.1139 1.86421 22.9801 1.54136 22.742 1.30329C22.5039 1.06522 22.1811 0.93141 21.8444 0.931274Z" fill="#4A4A4A"/>
</svg>
