<svg width="23" height="24" viewBox="0 0 23 24" fill="none" xmlns="http://www.w3.org/2000/svg">
<path d="M16.2864 2.657C17.5469 2.66077 18.7547 3.16315 19.6459 4.05445C20.5372 4.94574 21.0396 6.15351 21.0434 7.41398V16.9269C21.0396 18.1874 20.5372 19.3952 19.6459 20.2864C18.7547 21.1777 17.5469 21.6801 16.2864 21.6839H6.77348C5.513 21.6801 4.30523 21.1777 3.41394 20.2864C2.52265 19.3952 2.02026 18.1874 2.0165 16.9269V7.41398C2.02026 6.15351 2.52265 4.94574 3.41394 4.05445C4.30523 3.16315 5.513 2.66077 6.77348 2.657H16.2864ZM16.2864 0.754517H6.77348C3.11069 0.754517 0.114014 3.7512 0.114014 7.41398V16.9269C0.114014 20.5897 3.11069 23.5864 6.77348 23.5864H16.2864C19.9492 23.5864 22.9459 20.5897 22.9459 16.9269V7.41398C22.9459 3.7512 19.9492 0.754517 16.2864 0.754517Z" fill="#4A4A4A"/>
<path d="M17.7136 7.4138C17.4314 7.4138 17.1555 7.33011 16.9208 7.17331C16.6862 7.01651 16.5033 6.79364 16.3952 6.53289C16.2872 6.27214 16.259 5.98522 16.314 5.70841C16.3691 5.4316 16.505 5.17734 16.7046 4.97777C16.9041 4.7782 17.1584 4.6423 17.4352 4.58723C17.712 4.53217 17.999 4.56043 18.2597 4.66844C18.5204 4.77644 18.7433 4.95934 18.9001 5.19401C19.0569 5.42868 19.1406 5.70457 19.1406 5.98681C19.141 6.17431 19.1044 6.36006 19.0328 6.53337C18.9612 6.70668 18.8561 6.86415 18.7235 6.99674C18.591 7.12933 18.4335 7.23442 18.2602 7.30599C18.0869 7.37757 17.9011 7.4142 17.7136 7.4138Z" fill="#4A4A4A"/>
<path d="M11.53 8.36501C12.2826 8.36501 13.0184 8.5882 13.6442 9.00635C14.27 9.4245 14.7578 10.0188 15.0458 10.7142C15.3338 11.4096 15.4092 12.1747 15.2623 12.9129C15.1155 13.6511 14.7531 14.3292 14.2209 14.8614C13.6887 15.3936 13.0106 15.756 12.2724 15.9028C11.5342 16.0497 10.7691 15.9743 10.0737 15.6863C9.37833 15.3983 8.784 14.9105 8.36585 14.2847C7.9477 13.6589 7.72451 12.9231 7.72451 12.1705C7.72559 11.1615 8.12687 10.1942 8.8403 9.4808C9.55373 8.76737 10.521 8.36609 11.53 8.36501ZM11.53 6.46252C10.4011 6.46252 9.29748 6.79729 8.35881 7.42449C7.42014 8.05169 6.68854 8.94315 6.25652 9.98615C5.82449 11.0291 5.71146 12.1768 5.9317 13.2841C6.15194 14.3913 6.69558 15.4084 7.49385 16.2066C8.29212 17.0049 9.30918 17.5485 10.4164 17.7688C11.5237 17.989 12.6713 17.876 13.7143 17.444C14.7573 17.0119 15.6488 16.2803 16.276 15.3417C16.9032 14.403 17.238 13.2994 17.238 12.1705C17.238 10.6566 16.6366 9.2048 15.5661 8.13435C14.4957 7.0639 13.0438 6.46252 11.53 6.46252Z" fill="#4A4A4A"/>
</svg>
