<svg width="35" height="35" viewBox="0 0 35 35" fill="none" xmlns="http://www.w3.org/2000/svg">
<path d="M31.8829 24.0625C31.4006 23.7976 30.7951 23.9738 30.5303 24.4559C30.2654 24.9381 30.4415 25.5437 30.9237 25.8086C32.1102 26.4604 32.7908 27.183 32.7908 27.7912C32.7908 28.535 31.7369 29.6878 28.779 30.6927C25.8568 31.6856 21.9516 32.2324 17.783 32.2324C13.6143 32.2324 9.70915 31.6856 6.78695 30.6927C3.82901 29.6879 2.77515 28.535 2.77515 27.7912C2.77515 27.183 3.45568 26.4604 4.64222 25.8085C5.1244 25.5437 5.30051 24.938 5.03562 24.4559C4.77072 23.9737 4.1653 23.7976 3.68299 24.0625C2.36004 24.7893 0.782959 26.0262 0.782959 27.7912C0.782959 29.1441 1.71344 31.0731 6.14606 32.5791C9.26928 33.6402 13.402 34.2245 17.783 34.2245C22.1639 34.2245 26.2966 33.6402 29.4199 32.5791C33.8525 31.0731 34.783 29.1441 34.783 27.7912C34.783 26.0262 33.2059 24.7893 31.8829 24.0625Z" fill="#145CE6"/>
<path d="M10.2626 29.2527C12.2847 29.8239 14.9555 30.1385 17.783 30.1385C20.6105 30.1385 23.2813 29.824 25.3034 29.2527C27.7772 28.5539 29.0315 27.5423 29.0315 26.2461C29.0315 24.95 27.7772 23.9385 25.3034 23.2397C24.7542 23.0845 24.1569 22.9485 23.5219 22.8324C23.1771 23.4282 22.8158 24.0415 22.438 24.6724C23.1408 24.7778 23.8007 24.9071 24.4 25.0598C26.2206 25.5235 26.8857 26.0455 27.0224 26.2462C26.8856 26.447 26.2206 26.969 24.4 27.4326C22.6769 27.8715 20.4598 28.1219 18.1248 28.1442C18.0117 28.1526 17.8977 28.1573 17.783 28.1573C17.6682 28.1573 17.5543 28.1526 17.4411 28.1442C15.1061 28.1219 12.889 27.8716 11.1659 27.4326C9.34527 26.969 8.68021 26.4469 8.54348 26.2462C8.68021 26.0455 9.34533 25.5235 11.1659 25.0598C11.7652 24.9072 12.4251 24.7778 13.128 24.6724C12.7502 24.0415 12.3889 23.4281 12.044 22.8324C11.409 22.9485 10.8117 23.0845 10.2626 23.2397C7.78877 23.9385 6.53442 24.95 6.53442 26.2461C6.53442 27.5423 7.78877 28.5538 10.2626 29.2527Z" fill="#145CE6"/>
<path d="M17.7829 26.165C18.6696 26.165 19.475 25.7132 19.9376 24.9564C23.1789 19.6534 27.0426 12.6644 27.0426 9.48411C27.0426 4.37833 22.8887 0.224487 17.7829 0.224487C12.677 0.224487 8.52319 4.37833 8.52319 9.48411C8.52319 12.6644 12.3869 19.6534 15.6281 24.9564C16.0907 25.7132 16.8962 26.165 17.7829 26.165ZM14.061 8.84834C14.061 6.79618 15.7307 5.1266 17.7829 5.1266C19.8351 5.1266 21.5048 6.79618 21.5048 8.84834C21.5048 10.9006 19.8351 12.5701 17.7829 12.5701C15.7307 12.5701 14.061 10.9006 14.061 8.84834Z" fill="#145CE6"/>
</svg>
