<svg width="34" height="35" viewBox="0 0 34 35" fill="none" xmlns="http://www.w3.org/2000/svg">
<path d="M11.4196 14.2199C12.5848 13.0547 12.5848 11.159 11.4196 9.99379L7.32189 5.89604C6.69508 5.26917 5.82615 4.95155 4.93877 5.02459C4.06831 5.09625 3.281 5.53997 2.77876 6.24189C2.67451 6.38759 2.57383 6.53541 2.47522 6.68442L10.7151 14.9243L11.4196 14.2199Z" fill="#145CE6"/>
<path d="M28.3284 26.9026L24.2307 22.8049C23.0656 21.6398 21.1697 21.6397 20.0046 22.8049L19.3 23.5094L27.5403 31.7496C27.6893 31.651 27.8369 31.5499 27.9825 31.4457C28.6844 30.9435 29.1281 30.1562 29.1999 29.2857C29.273 28.3982 28.9553 27.5295 28.3284 26.9026Z" fill="#145CE6"/>
<path d="M16.4829 25.0887C15.6846 25.0887 14.9343 24.7779 14.3699 24.2135L10.0109 19.8546C9.44656 19.2902 9.13565 18.5397 9.13565 17.7415C9.13565 17.2881 9.23625 16.8502 9.42631 16.453L1.4574 8.48401C0.336464 10.8377 -0.159592 13.4746 0.0450725 16.1214C0.320858 19.6881 1.85896 23.0386 4.37616 25.5557L8.66881 29.8483C11.1859 32.3654 14.5364 33.9035 18.1031 34.1794C18.4928 34.2095 18.8822 34.2245 19.2707 34.2245C21.5202 34.2245 23.7334 33.723 25.7404 32.7671L17.7714 24.7981C17.3742 24.9882 16.9363 25.0887 16.4829 25.0887Z" fill="#145CE6"/>
<path d="M20.0547 0.224487C19.5046 0.224487 19.0586 0.670473 19.0586 1.22058C19.0586 1.77069 19.5046 2.21668 20.0547 2.21668C26.6457 2.21668 32.0078 7.57887 32.0078 14.1698C32.0078 14.7199 32.4538 15.1659 33.0039 15.1659C33.5541 15.1659 34 14.7199 34 14.1698C34 6.48037 27.7442 0.224487 20.0547 0.224487Z" fill="#145CE6"/>
<path d="M20.0546 14.1689C20.0546 14.1689 20.0547 14.1692 20.0547 14.1698C20.0547 14.7199 20.5007 15.1659 21.0508 15.1659C21.6009 15.1659 22.0469 14.7199 22.0469 14.1698C22.0469 13.0713 21.1532 12.1776 20.0547 12.1776C19.5046 12.1776 19.0586 12.6231 19.0586 13.1732C19.0586 13.7234 19.5045 14.1689 20.0546 14.1689Z" fill="#145CE6"/>
<path d="M20.0547 10.1854C22.2517 10.1854 24.0391 11.9728 24.0391 14.1698C24.0391 14.7199 24.4851 15.1659 25.0352 15.1659C25.5853 15.1659 26.0313 14.7199 26.0313 14.1698C26.0313 10.8743 23.3502 8.19324 20.0547 8.19324C19.5046 8.19324 19.0586 8.63922 19.0586 9.18933C19.0586 9.73944 19.5046 10.1854 20.0547 10.1854Z" fill="#145CE6"/>
<path d="M20.0547 4.20886C19.5046 4.20886 19.0586 4.65485 19.0586 5.20496C19.0586 5.75507 19.5046 6.20105 20.0547 6.20105C24.4487 6.20105 28.0235 9.77585 28.0235 14.1698C28.0235 14.7199 28.4694 15.1659 29.0196 15.1659C29.5697 15.1659 30.0157 14.7199 30.0157 14.1698C30.0157 8.67735 25.5472 4.20886 20.0547 4.20886Z" fill="#145CE6"/>
</svg>
