<svg width="24" height="24" viewBox="0 0 24 24" fill="none" xmlns="http://www.w3.org/2000/svg">
<path d="M22.7548 1.29208C22.5868 1.12413 22.3739 1.00832 22.1416 0.958585C21.9094 0.908851 21.6677 0.927315 21.4456 1.01175L0.907967 8.78542H0.903859C0.667058 8.8765 0.464144 9.03846 0.322832 9.24918C0.18152 9.4599 0.108699 9.70911 0.114316 9.96277C0.119932 10.2164 0.203713 10.4622 0.354214 10.6664C0.504715 10.8707 0.714598 11.0235 0.9552 11.104L0.976249 11.1107L8.02528 14.1209C8.16277 14.1626 8.3088 14.1675 8.4488 14.1352C8.58879 14.1029 8.71786 14.0344 8.82311 13.9365L20.1365 3.39453C20.1702 3.36082 20.2102 3.33407 20.2542 3.31583C20.2983 3.29759 20.3455 3.2882 20.3932 3.2882C20.4408 3.2882 20.488 3.29759 20.5321 3.31583C20.5761 3.33407 20.6162 3.36082 20.6499 3.39453C20.6836 3.42824 20.7103 3.46826 20.7286 3.51231C20.7468 3.55635 20.7562 3.60356 20.7562 3.65124C20.7562 3.69891 20.7468 3.74612 20.7286 3.79017C20.7103 3.83421 20.6836 3.87423 20.6499 3.90795L10.1076 15.2165C10.0098 15.3217 9.94133 15.4508 9.90899 15.5908C9.87665 15.7308 9.88159 15.8769 9.92333 16.0143L12.9344 23.0677C12.9375 23.078 12.9406 23.0872 12.9442 23.0969C13.1085 23.5729 13.5243 23.9087 14.027 23.9313H14.0783C14.332 23.9327 14.5803 23.8578 14.7909 23.7162C15.0015 23.5747 15.1647 23.373 15.2591 23.1375L23.0315 2.60489C23.1172 2.38272 23.1366 2.1405 23.0875 1.90752C23.0384 1.67454 22.9228 1.46077 22.7548 1.29208Z" fill="#4A4A4A"/>
</svg>
