<svg width="18" height="18" viewBox="0 0 18 18" fill="none" xmlns="http://www.w3.org/2000/svg">
<path d="M14.6863 1.40549V3.55298H13.6869V1.40549H11.4751V3.55298H10.4758V1.40549H8.26392V3.55298H7.2646V1.40549H5.05273V3.55298H4.05341V1.40549H0.842285V4.8159H17.8974V1.40549H14.6863Z" fill="#145CE6"/>
<path d="M5.05279 0.707916H4.05347V1.40551H5.05279V0.707916Z" fill="#145CE6"/>
<path d="M8.26385 0.707916H7.26453V1.40551H8.26385V0.707916Z" fill="#145CE6"/>
<path d="M11.475 0.707916H10.4757V1.40551H11.475V0.707916Z" fill="#145CE6"/>
<path d="M14.6862 0.707916H13.6869V1.40551H14.6862V0.707916Z" fill="#145CE6"/>
<path d="M0.842285 5.78964V17.3257H17.8974V5.78964H0.842285ZM6.0805 15.3783H3.34059V12.7087H6.0805V15.3783ZM6.0805 10.4067H3.34059V7.73704H6.0805V10.4067ZM10.7398 15.3783H7.99987V12.7087H10.7398V15.3783ZM10.7398 10.4067H7.99987V7.73704H10.7398V10.4067ZM15.3991 15.3783H12.6592V12.7087H15.3991V15.3783ZM15.3991 10.4067H12.6592V7.73704H15.3991V10.4067Z" fill="#145CE6"/>
</svg>
