<svg width="18" height="18" viewBox="0 0 18 18" fill="none" xmlns="http://www.w3.org/2000/svg">
<path d="M17.4486 14.684L10.761 8.16781L2.9476 0.554779H2.33698L2.2123 0.863474C1.88322 1.67827 1.74262 2.51162 1.80574 3.27335C1.87769 4.14163 2.21623 4.89335 2.78481 5.44736L8.88434 11.3905L9.68886 10.6066L15.3279 16.7504C15.8888 17.297 16.8543 17.3294 17.4486 16.7504C18.0333 16.1807 18.0333 15.2537 17.4486 14.684Z" fill="#145CE6"/>
<path d="M6.05791 10.014L1.28079 14.6686C0.696118 15.2383 0.696118 16.1653 1.28079 16.735C1.83621 17.2762 2.79706 17.324 3.40152 16.735L8.17868 12.0803L6.05791 10.014Z" fill="#145CE6"/>
<path d="M17.1678 3.32168L14.458 5.96202L13.751 5.27323L16.4609 2.63285L15.754 1.94405L13.0441 4.5844L12.3372 3.89561L15.0471 1.25526L14.3402 0.566498L10.8056 4.01047C10.3732 4.43179 10.115 4.99121 10.0785 5.58575C10.0692 5.73638 10.0342 5.88455 9.97607 6.02548L12.2722 8.26268C12.4168 8.20598 12.5689 8.17186 12.7234 8.16287C13.3336 8.1274 13.9078 7.87576 14.3402 7.45444L17.8748 4.0105L17.1678 3.32168Z" fill="#145CE6"/>
</svg>
